<svg width="251" height="275" viewBox="0 0 251 275" fill="none" xmlns="http://www.w3.org/2000/svg">
<rect width="90" height="30" transform="matrix(0.977954 -0.208821 0.216405 0.976304 139 77.7939)" fill="#888888"/>
<rect width="90" height="30" transform="matrix(0.216405 0.976304 -0.977954 0.208821 213.96 -0.000244141)" fill="#888888"/>
<path fill-rule="evenodd" clip-rule="evenodd" d="M138.045 25.1019C166.825 27.9365 193.732 40.6626 214.181 61.1117L193.246 82.0467C177.739 66.6681 157.404 57.0989 135.662 54.9575C113.789 52.8032 91.8456 58.2997 73.5709 70.5104C55.2962 82.7211 41.8208 100.891 35.4407 121.923C29.0606 142.955 30.1706 165.549 38.5815 185.855C46.9924 206.161 62.1838 222.922 81.5674 233.283C100.951 243.643 123.327 246.962 144.884 242.675C166.44 238.387 185.843 226.757 199.786 209.767C213.729 192.778 221.35 171.479 221.35 149.5H250.793C250.793 178.419 240.765 206.444 222.419 228.799C204.073 251.154 178.543 266.456 150.179 272.098C121.815 277.74 92.3726 273.373 66.868 259.74C41.3633 246.108 21.3746 224.053 10.3076 197.335C-0.759328 170.617 -2.21981 140.889 6.17505 113.214C14.5699 85.5403 32.3007 61.6331 56.3463 45.5663C80.3919 29.4995 109.265 22.2673 138.045 25.1019Z" fill="#888888"/>
</svg>
